<svg id="Layer_1" enable-background="new 0 0 512 512" height="512" viewBox="0 0 512 512" width="512" xmlns="http://www.w3.org/2000/svg"><g><path d="m43.623 185.254h337.51c.937 0 1.862.049 2.781.124v-40.198c-.918.075-1.844.124-2.781.124h-337.51c-.937 0-1.862-.049-2.781-.124v40.198c.918-.075 1.844-.124 2.781-.124z" fill="#6e60b8"/><g><path d="m96.811 145.304h-53.188c-.937 0-1.862-.048-2.781-.123v40.198c.918-.075 1.844-.124 2.781-.124h53.188z" fill="#6353b2"/></g><path d="m381.132 326.746h-337.509c-.937 0-1.862-.049-2.781-.124v40.198c.918-.075 1.844-.124 2.781-.124h337.51c.937 0 1.862.049 2.781.124v-40.198c-.919.075-1.845.124-2.782.124z" fill="#6e60b8"/><g><path d="m96.811 326.746h-53.188c-.937 0-1.862-.049-2.781-.124v40.198c.918-.075 1.844-.124 2.781-.124h53.188z" fill="#6353b2"/></g><path d="m381.133 0h-337.51c-18.736 0-34.064 15.329-34.064 34.064v80.989c0 18.735 15.329 34.064 34.064 34.064h337.51c18.735 0 34.064-15.329 34.064-34.064v-80.989c-.001-18.735-15.329-34.064-34.064-34.064z" fill="#8479c2"/><path d="m56.576 115.052v-80.988c0-18.735 15.329-34.064 34.064-34.064h-47.017c-18.736 0-34.064 15.329-34.064 34.064v80.988c0 18.735 15.329 34.064 34.064 34.064h47.017c-18.735 0-34.064-15.328-34.064-34.064z" fill="#6e60b8"/><path d="m376.266 31.283h-327.777c-4.223 0-7.647 3.424-7.647 7.647v71.256c0 4.223 3.424 7.647 7.647 7.647h327.777c4.223 0 7.647-3.424 7.647-7.647v-71.256c0-4.223-3.423-7.647-7.647-7.647z" fill="#6e60b8"/><path d="m87.86 110.186v-71.256c0-4.223 3.424-7.647 7.647-7.647h-47.018c-4.223 0-7.647 3.424-7.647 7.647v71.256c0 4.223 3.424 7.647 7.647 7.647h47.018c-4.224 0-7.647-3.424-7.647-7.647z" fill="#6353b2"/><circle cx="87.734" cy="74.558" fill="#ffe181" r="16.163"/><path d="m90.64 74.558c0-5.356 2.616-10.089 6.628-13.03-2.675-1.961-5.964-3.133-9.535-3.133-8.926 0-16.163 7.236-16.163 16.163s7.237 16.163 16.163 16.163c3.571 0 6.86-1.172 9.535-3.133-4.011-2.941-6.628-7.674-6.628-13.03z" fill="#fec458"/><circle cx="145.592" cy="74.558" fill="#ffe181" r="16.163"/><path d="m148.499 74.558c0-5.356 2.616-10.089 6.628-13.03-2.675-1.961-5.964-3.133-9.535-3.133-8.926 0-16.163 7.236-16.163 16.163s7.237 16.163 16.163 16.163c3.571 0 6.86-1.172 9.535-3.133-4.012-2.941-6.628-7.674-6.628-13.03z" fill="#fec458"/><circle cx="203.45" cy="74.558" fill="#ffe181" r="16.163"/><path d="m206.357 74.558c0-5.356 2.616-10.089 6.628-13.03-2.675-1.961-5.964-3.133-9.535-3.133-8.926 0-16.163 7.236-16.163 16.163s7.237 16.163 16.163 16.163c3.571 0 6.86-1.172 9.535-3.133-4.012-2.941-6.628-7.674-6.628-13.03z" fill="#fec458"/><path d="m381.133 183.006h-337.51c-18.735 0-34.064 15.329-34.064 34.064v80.989c0 18.735 15.329 34.064 34.064 34.064h337.51c18.735 0 34.064-15.329 34.064-34.064v-80.989c-.001-18.735-15.329-34.064-34.064-34.064z" fill="#8479c2"/><path d="m56.576 298.058v-80.988c0-18.735 15.329-34.064 34.064-34.064h-47.017c-18.735 0-34.064 15.329-34.064 34.064v80.989c0 18.735 15.329 34.064 34.064 34.064h47.017c-18.735-.001-34.064-15.33-34.064-34.065z" fill="#6e60b8"/><path d="m376.266 214.289h-327.777c-4.223 0-7.647 3.424-7.647 7.647v71.256c0 4.223 3.424 7.647 7.647 7.647h327.777c4.223 0 7.647-3.424 7.647-7.647v-71.256c0-4.223-3.423-7.647-7.647-7.647z" fill="#6e60b8"/><path d="m87.86 293.192v-71.256c0-4.223 3.424-7.647 7.647-7.647h-47.018c-4.223 0-7.647 3.424-7.647 7.647v71.256c0 4.223 3.424 7.647 7.647 7.647h47.018c-4.224 0-7.647-3.424-7.647-7.647z" fill="#6353b2"/><circle cx="87.734" cy="257.564" fill="#ffe181" r="16.163"/><path d="m90.64 257.564c0-5.356 2.616-10.089 6.628-13.03-2.675-1.961-5.964-3.133-9.535-3.133-8.926 0-16.163 7.236-16.163 16.163s7.237 16.163 16.163 16.163c3.571 0 6.86-1.172 9.535-3.133-4.011-2.941-6.628-7.674-6.628-13.03z" fill="#fec458"/><circle cx="145.592" cy="257.564" fill="#ffe181" r="16.163"/><path d="m148.499 257.564c0-5.356 2.616-10.089 6.628-13.03-2.675-1.961-5.964-3.133-9.535-3.133-8.926 0-16.163 7.236-16.163 16.163s7.237 16.163 16.163 16.163c3.571 0 6.86-1.172 9.535-3.133-4.012-2.941-6.628-7.674-6.628-13.03z" fill="#fec458"/><circle cx="203.45" cy="257.564" fill="#ffe181" r="16.163"/><path d="m206.357 257.564c0-5.356 2.616-10.089 6.628-13.03-2.675-1.961-5.964-3.133-9.535-3.133-8.926 0-16.163 7.236-16.163 16.163s7.237 16.163 16.163 16.163c3.571 0 6.86-1.172 9.535-3.133-4.012-2.941-6.628-7.674-6.628-13.03z" fill="#fec458"/><path d="m381.133 362.884h-337.51c-18.735 0-34.064 15.329-34.064 34.064v80.989c0 18.734 15.328 34.063 34.064 34.063h337.51c18.735 0 34.064-15.329 34.064-34.064v-80.989c-.001-18.734-15.329-34.063-34.064-34.063z" fill="#8479c2"/><path d="m56.576 477.936v-80.988c0-18.735 15.329-34.064 34.064-34.064h-47.017c-18.735 0-34.064 15.329-34.064 34.064v80.988c0 18.735 15.328 34.064 34.064 34.064h47.017c-18.735 0-34.064-15.329-34.064-34.064z" fill="#6e60b8"/><path d="m376.266 394.167h-327.777c-4.223 0-7.647 3.424-7.647 7.647v71.256c0 4.223 3.424 7.647 7.647 7.647h327.777c4.223 0 7.647-3.424 7.647-7.647v-71.256c0-4.223-3.423-7.647-7.647-7.647z" fill="#6e60b8"/><path d="m87.86 473.07v-71.256c0-4.223 3.424-7.647 7.647-7.647h-47.018c-4.223 0-7.647 3.424-7.647 7.647v71.256c0 4.223 3.424 7.647 7.647 7.647h47.018c-4.224 0-7.647-3.424-7.647-7.647z" fill="#6353b2"/><circle cx="87.734" cy="437.442" fill="#ffe181" r="16.163"/><path d="m90.64 437.442c0-5.356 2.616-10.089 6.628-13.03-2.675-1.961-5.964-3.133-9.535-3.133-8.926 0-16.163 7.236-16.163 16.163s7.237 16.163 16.163 16.163c3.571 0 6.86-1.172 9.535-3.133-4.011-2.941-6.628-7.674-6.628-13.03z" fill="#fec458"/><circle cx="145.592" cy="437.442" fill="#ffe181" r="16.163"/><path d="m148.499 437.442c0-5.356 2.616-10.089 6.628-13.03-2.675-1.961-5.964-3.133-9.535-3.133-8.926 0-16.163 7.236-16.163 16.163s7.237 16.163 16.163 16.163c3.571 0 6.86-1.172 9.535-3.133-4.012-2.941-6.628-7.674-6.628-13.03z" fill="#fec458"/><circle cx="203.45" cy="437.442" fill="#ffe181" r="16.163"/><path d="m206.357 437.442c0-5.356 2.616-10.089 6.628-13.03-2.675-1.961-5.964-3.133-9.535-3.133-8.926 0-16.163 7.236-16.163 16.163s7.237 16.163 16.163 16.163c3.571 0 6.86-1.172 9.535-3.133-4.012-2.941-6.628-7.674-6.628-13.03z" fill="#fec458"/><g><path d="m273.472 82.284h-20.948c-4.267 0-7.726-3.459-7.726-7.726 0-4.268 3.459-7.726 7.726-7.726h20.948c4.267 0 7.726 3.459 7.726 7.726s-3.459 7.726-7.726 7.726z" fill="#6353b2"/></g><g><path d="m286.588 265.291h-34.064c-4.267 0-7.726-3.459-7.726-7.726s3.459-7.726 7.726-7.726h34.064c4.267 0 7.726 3.459 7.726 7.726s-3.459 7.726-7.726 7.726z" fill="#6353b2"/></g><g><path d="m351.935 265.291h-32.674c-4.267 0-7.726-3.459-7.726-7.726s3.459-7.726 7.726-7.726h32.674c4.267 0 7.726 3.459 7.726 7.726s-3.459 7.726-7.726 7.726z" fill="#6353b2"/></g><g><path d="m286.588 445.169h-34.064c-4.267 0-7.726-3.459-7.726-7.726s3.459-7.726 7.726-7.726h34.064c4.267 0 7.726 3.459 7.726 7.726s-3.459 7.726-7.726 7.726z" fill="#6353b2"/></g><g><path d="m351.935 445.169h-32.674c-4.267 0-7.726-3.459-7.726-7.726s3.459-7.726 7.726-7.726h32.674c4.267 0 7.726 3.459 7.726 7.726s-3.459 7.726-7.726 7.726z" fill="#6353b2"/></g><circle cx="383.913" cy="118.528" fill="#dfebfa" r="118.528"/><path d="m305.905 118.528c0-58.553 42.46-107.183 98.268-116.796-6.584-1.134-13.352-1.732-20.26-1.732-65.461 0-118.528 53.067-118.528 118.528s53.067 118.528 118.528 118.528c6.908 0 13.676-.598 20.26-1.732-55.808-9.613-98.268-58.243-98.268-116.796z" fill="#bed8fb"/><path d="m454.64 117.498c-3.23 0-5.906-2.478-6.186-5.696-2.883-33.102-30.689-59.092-64.541-59.092-33.851 0-61.657 25.987-64.541 59.092-.28 3.218-2.956 5.696-6.186 5.696h-20.538c-.004.344-.013.686-.013 1.03 0 50.411 40.866 91.277 91.277 91.277s91.278-40.866 91.278-91.277c0-.344-.009-.687-.013-1.03z" fill="#8479c2"/><path d="m322.475 118.528c0-12.294 2.208-24.071 6.244-34.961-5.144 8.347-8.45 17.946-9.347 28.235-.28 3.218-2.956 5.696-6.186 5.696h-20.538c-.004.344-.013.686-.013 1.03 0 49.294 39.077 89.454 87.942 91.21-34.318-16.022-58.102-50.835-58.102-91.21z" fill="#6e60b8"/><g><path d="m383.913 108.84c-4.267 0-7.726-3.459-7.726-7.726v-26.556c0-4.268 3.459-7.726 7.726-7.726s7.726 3.459 7.726 7.726v26.556c0 4.267-3.459 7.726-7.726 7.726z" fill="#ff4756"/></g><g><path d="m383.913 151.394c-4.267 0-7.726-3.459-7.726-7.726v-7.725c0-4.268 3.459-7.726 7.726-7.726s7.726 3.459 7.726 7.726v7.725c0 4.267-3.459 7.726-7.726 7.726z" fill="#ff4756"/></g><path d="m383.913 27.251c-25.206 0-48.025 10.217-64.543 26.735l19.544 19.544c11.517-11.517 27.424-18.645 44.999-18.645z" fill="#93d3a2"/><path d="m380.578 27.318c-23.879.858-45.422 10.882-61.208 26.668l15.727 15.727c10.282-18.493 26.221-33.403 45.481-42.395z" fill="#6ec17d"/><path d="m292.636 118.528h21.799c3.174 0 5.802-2.434 6.077-5.595 1.336-15.343 8.12-29.122 18.402-39.404l-19.544-19.544c-16.518 16.518-26.734 39.338-26.734 64.543z" fill="#9dc6fb"/><path d="m335.098 69.712-15.728-15.727c-16.518 16.518-26.734 39.337-26.734 64.543h21.799c3.174 0 5.802-2.434 6.077-5.595.638-7.324 2.53-14.285 5.438-20.686 2.144-7.944 5.235-15.498 9.148-22.535z" fill="#80b4fb"/><path d="m448.456 53.985-19.544 19.544c10.282 10.282 17.066 24.061 18.402 39.404.275 3.162 2.903 5.595 6.077 5.595h21.799c.001-25.205-10.216-48.025-26.734-64.543z" fill="#ff656f"/><path d="m383.913 27.251v27.633c17.575 0 33.482 7.128 44.999 18.645l19.544-19.544c-16.518-16.518-39.337-26.734-64.543-26.734z" fill="#ffe181"/><g><path d="m398.506 176.161h-29.534c-4.267 0-7.726-3.459-7.726-7.726s3.459-7.726 7.726-7.726h29.534c4.267 0 7.726 3.459 7.726 7.726s-3.459 7.726-7.726 7.726z" fill="#6e60b8"/></g><circle cx="383.913" cy="118.528" fill="#ff656f" r="17.415"/></g></svg>