<svg id="Capa_1" enable-background="new 0 0 512 512" height="512" viewBox="0 0 512 512" width="512" xmlns="http://www.w3.org/2000/svg"><g><path d="m432.852 432.851-4.537 46.963 83.685 32.186-32.186-83.685z" fill="#09a1e5"/><path d="m445.709 339.643-106.159-.093.093 106.159 88.672 34.105 51.499-51.499z" fill="#ffd19c"/><path d="m79.516 10.998h150v287.039h-150z" fill="#3ec3ff" transform="matrix(.707 -.707 .707 .707 -64.003 154.517)"/><path d="m249.338 227.694h150v193.289h-150z" fill="#09a1e5" transform="matrix(.707 -.707 .707 .707 -134.345 324.338)"/><path d="m32.187 428.315-32.187 83.685 100.362-57.936z" fill="#ff3187"/><path d="m0 512 83.685-32.186-4.536-46.963z" fill="#cb2e81"/><path d="m185.215 369.211-118.923-29.568-34.105 88.672 25.749 25.749z" fill="#fff0be"/><path d="m164.002 347.998-106.066 106.066 25.749 25.75 88.673-34.105z" fill="#ffd19c"/><path d="m119.324 392.676 53.034 53.033 339.642-339.643-53.033-53.033-212.248 127.395z" fill="#cb2e81"/><path d="m22.466 158.838h480.327v75h-480.327z" fill="#ff3187" transform="matrix(.707 -.707 .707 .707 -61.91 243.213)"/></g></svg>